<?xml version="1.0" standalone="no"?>
<!DOCTYPE svg PUBLIC "-//W3C//DTD SVG 20010904//EN"
 "http://www.w3.org/TR/2001/REC-SVG-20010904/DTD/svg10.dtd">
<svg version="1.0" xmlns="http://www.w3.org/2000/svg"
 width="512.000000pt" height="512.000000pt" viewBox="0 0 512.000000 512.000000"
 preserveAspectRatio="xMidYMid meet">
<metadata>
Created by potrace 1.11, written by Peter Selinger 2001-2013
</metadata>
<g transform="translate(0.000000,512.000000) scale(0.100000,-0.100000)"
fill="#000000" stroke="none">
<path d="M4907 4937 c-32 -63 -68 -126 -84 -147 -7 -8 -33 -42 -58 -75 -146
-191 -378 -382 -665 -547 -115 -66 -308 -164 -410 -208 -41 -18 -95 -41 -119
-52 -71 -32 -401 -160 -586 -227 -93 -34 -179 -66 -190 -71 -11 -5 -96 -37
-190 -70 -93 -34 -183 -67 -200 -74 -16 -7 -79 -32 -140 -56 -662 -260 -988
-528 -1053 -865 -9 -51 -5 -197 7 -260 35 -173 142 -395 288 -600 24 -33 51
-71 60 -85 10 -13 46 -58 81 -99 34 -42 62 -81 62 -88 0 -7 0 -16 1 -20 1 -9
-1 -10 -651 -361 -36 -19 -81 -44 -100 -55 -19 -11 -82 -44 -140 -75 -58 -30
-109 -58 -115 -62 -5 -4 -55 -31 -110 -60 -55 -29 -104 -56 -110 -60 -5 -4
-64 -36 -130 -70 -66 -35 -127 -68 -135 -75 -8 -6 -30 -17 -47 -25 -18 -7 -33
-15 -32 -19 0 -3 60 -125 133 -269 l132 -264 131 139 c72 76 158 165 190 199
32 33 123 130 203 214 80 84 170 178 200 210 30 32 123 128 205 215 83 87 168
177 190 200 22 23 75 78 117 123 75 79 79 82 125 84 64 2 83 1 183 -7 116 -9
201 -13 430 -21 356 -11 545 -9 635 10 11 2 40 7 65 11 147 24 404 136 570
248 295 202 425 329 569 560 246 392 427 946 516 1577 16 113 21 156 29 230
12 109 19 182 31 330 11 147 17 205 21 211 2 3 6 19 8 35 10 52 15 75 21 94 3
10 7 27 9 37 2 10 10 38 17 63 7 25 13 50 15 55 1 6 14 46 28 90 14 43 24 80
23 82 -2 1 -15 -21 -30 -50z"/>
</g>
</svg>
